# xmcd
#
# Track frame offsets:
#	150
#	23475
#	57525
#	77400
#	104250
#	130388
#	147713
#	190126
#	220539
#
# Disc length: 3426 seconds
#
# Revision: 1
# Processed by: cddbd v1.5.2PL0 Copyright (c) Steve Scherf et al.
# Submitted via: audiograbber 1.83.01
#
DISCID=7a0d6009
DTITLE=Slick Willy - Take The Old Road...
DYEAR=2009
DGENRE=Blues
TTITLE0=Don't Let My Baby Ride
TTITLE1=You Shook Me
TTITLE2=That's Alright Momma
TTITLE3=You Gonna Make Me Cry
TTITLE4=Mary Anne
TTITLE5=Get Out Of My Life Woman
TTITLE6=Early In The Morning
TTITLE7=Never Make Your Move To Soon
TTITLE8=The Moon Is Full
EXTD=
EXTT0=
EXTT1=
EXTT2=
EXTT3=
EXTT4=
EXTT5=
EXTT6=
EXTT7=
EXTT8=
PLAYORDER=
